<?xml version="1.0"?>

<!DOCTYPE svg PUBLIC '-//W3C//DTD SVG 1.0//EN' 'http://www.w3.org/TR/2001/REC-SVG-20010904/DTD/svg10.dtd'>
<svg fill-opacity="1" xmlns:xlink="http://www.w3.org/1999/xlink" color-rendering="auto" color-interpolation="auto" stroke="black" text-rendering="auto" stroke-linecap="square" stroke-miterlimit="10" stroke-opacity="1" shape-rendering="auto" fill="black" stroke-dasharray="none" font-weight="normal" stroke-width="1" xmlns="http://www.w3.org/2000/svg" font-family="&apos;Dialog&apos;" font-style="normal" stroke-linejoin="miter" font-size="12" stroke-dashoffset="0" image-rendering="auto">
  <!--Unicode Character 'PILE OF POO' (U+1F4A9)-->
  <defs id="genericDefs" />
  <g>
    <g>
      <path d="M175.0781 75.6562 Q172.8281 76.0781 168.4688 77.7656 Q155.25 86.2031 155.25 95.7656 Q155.25 101.25 157.5 104.3438 Q160.7344 108.4219 164.1094 112.3594 Q169.0312 118.6875 169.0312 120.375 L169.0312 130.9219 Q165.9375 133.4531 160.4531 136.9688 Q164.6719 131.9062 164.6719 128.6719 Q164.6719 123.4688 163.2656 120.9375 Q161.5781 119.8125 158.3438 117.1406 Q152.0156 111.0938 150.1875 106.3125 Q148.6406 102.2344 148.6406 93.2344 Q148.6406 75.6562 175.0781 75.6562 ZM131.7656 137.5312 L131.625 142.1719 Q131.4844 148.2188 126.0703 151.2422 Q120.6562 154.2656 115.5938 156.9375 Q112.2188 159.4688 112.2188 161.2969 Q112.2188 165.7969 119.9531 170.4375 Q111.6562 168.75 111.2344 168.6094 Q107.1562 166.7812 107.1562 161.4375 Q107.1562 156.0938 111.6562 152.5781 Q116.1562 149.9062 120.5156 147.2344 Q122.9062 145.6875 124.5938 141.0469 Q124.7344 140.625 124.7344 140.2031 L124.7344 139.7812 Q123.0469 138.5156 111.0938 132.75 Q102.6562 128.8125 100.4062 122.2031 Q99.9844 121.2188 99.9844 115.3125 Q99.9844 112.3594 100.4062 110.9531 Q102.375 103.0781 114.0469 103.0781 Q129.0938 103.0781 129.0938 111.375 Q129.0938 113.2031 127.6172 115.2422 Q126.1406 117.2812 124.4531 117.2812 Q123.4688 117.2812 121.7109 116.7188 Q119.9531 116.1562 119.1094 116.1562 Q119.3906 116.1562 119.9531 116.2969 Q124.3125 116.2969 124.3125 111.375 Q124.3125 105.6094 117 105.6094 Q110.6719 105.6094 108.5625 108.7031 Q107.0156 111.0938 107.0156 117.7031 Q107.0156 118.125 107.1562 118.6875 Q108.5625 125.0156 120.5156 129.7969 Q131.7656 134.2969 131.7656 137.5312 ZM245.9531 299.1094 Q245.9531 309.375 234.2812 317.6719 Q225.1406 324 213.0469 327.0938 Q194.9062 331.7344 193.6406 331.7344 Q192.9375 331.7344 191.3906 331.5234 Q189.8438 331.3125 189.1406 331.3125 Q186.1875 331.3125 180.4219 333.2109 Q174.6562 335.1094 171.7031 335.1094 L147.375 335.1094 Q144.9844 335.1094 140.9062 336.2344 Q136.2656 337.5 134.4375 337.6406 Q126.1406 338.4844 115.3125 338.4844 Q92.25 338.4844 79.875 336.7969 Q79.1719 336.6562 77.2734 336.0938 Q75.375 335.5312 74.3906 335.5312 Q73.8281 335.5312 72.4219 336.1641 Q71.0156 336.7969 70.0312 336.7969 Q56.1094 336.7969 51.4688 335.8125 Q49.5 335.1094 45.2812 333.5625 Q41.0625 332.0156 35.8594 329.7656 Q35.4375 329.0625 34.5938 327.9375 Q32.0625 326.6719 27.7031 324.2812 Q11.5312 313.5938 11.5312 278.1562 Q11.5312 271.5469 19.4062 262.6875 Q26.1562 255.0938 33.3281 251.0156 Q38.3906 248.9062 48.0938 244.125 Q47.8125 241.875 47.3906 237.375 Q48.5156 236.1094 48.5156 234.5625 Q48.5156 233.8594 48.1641 232.3125 Q47.8125 230.7656 47.8125 230.0625 Q47.8125 224.1562 51.75 217.125 Q53.1562 215.7188 55.8281 212.7656 Q63.8438 203.2031 72.8438 201.2344 Q85.6406 198.4219 90.2812 198.4219 Q94.2188 198.4219 97.875 198.9844 Q98.7188 199.125 100.8984 199.8984 Q103.0781 200.6719 103.9219 200.6719 L119.6719 200.6719 Q121.0781 200.6719 123.8906 201.0938 Q126.7031 201.5156 128.1094 201.5156 Q130.2188 201.5156 136.4062 197.7188 Q144.2812 192.9375 147.0938 190.4062 Q152.2969 185.7656 154.125 179.7188 Q154.8281 177.3281 154.8281 177.6094 Q154.8281 174.375 152.5781 169.4531 Q151.7344 167.7656 148.5703 166.4297 Q145.4062 165.0938 144.1406 162.7031 Q136.4062 165.375 136.6875 171.2812 L135.2812 171.2812 Q133.3125 171.2812 133.3125 167.0625 Q133.3125 154.125 158.625 154.125 Q159.8906 154.125 168.8906 156.6562 Q180.5625 159.8906 187.1719 170.1562 Q193.5 179.8594 193.5 192.375 Q193.5 202.7812 192.5156 206.4375 Q191.1094 208.5469 188.7188 212.3438 Q204.3281 212.625 212.2031 223.0312 Q216 228.0938 216.7031 242.8594 Q228.7969 246.5156 237.9375 263.3906 Q245.9531 278.1562 245.9531 299.1094 ZM206.0156 234.2812 Q206.0156 230.4844 202.7812 226.8281 Q196.0312 219.0938 187.3125 219.0938 L184.9219 219.0938 Q175.7812 219.0938 170.8594 219.6562 Q166.7812 225.1406 163.6875 225.1406 Q162.2812 225.1406 160.7344 222.0469 L133.1719 222.0469 Q132.75 222.0469 131.4844 220.9219 Q129.2344 220.7812 128.5312 219.375 Q129.5156 218.9531 131.3438 217.4062 Q134.0156 217.4062 135.7031 219.0938 Q137.1094 218.5312 140.4844 214.875 Q142.4531 214.7344 142.5938 214.7344 Q144.5625 214.7344 145.9688 216.5625 Q147.2344 216.1406 149.9062 215.0156 Q150.8906 212.9062 153.9844 212.7656 Q157.9219 212.4844 158.625 212.0625 Q160.0312 210.7969 162.8438 209.5312 Q165.0938 206.2969 166.0781 206.0156 Q166.0781 206.0156 171 206.0156 Q171.7031 204.0469 173.6719 200.6719 Q172.6875 200.6719 171.5625 199.5469 L171.5625 195.6094 Q172.6875 193.9219 174.375 194.0625 Q177.6094 194.0625 177.6094 194.0625 Q177.1875 193.3594 174.5156 190.9688 L174.5156 187.1719 Q176.3438 186.0469 179.7188 183.6562 Q177.75 181.5469 177.75 180.5625 Q177.75 180.1406 178.0312 179.2266 Q178.3125 178.3125 178.3125 177.8906 Q178.3125 177.1875 176.9766 175.1484 Q175.6406 173.1094 175.5 172.4062 Q175.2188 168.8906 171.5625 162.5625 Q170.5781 161.7188 163.6172 159.8906 Q156.6562 158.0625 154.9688 158.0625 Q148.9219 158.0625 147.5156 160.1719 Q149.0625 160.3125 151.875 161.5781 Q159.6094 168.0469 159.6094 175.2188 Q159.6094 179.0156 157.6406 184.7812 Q154.9688 192.6562 144.5625 199.125 Q141.1875 201.7969 135.9844 205.1719 Q129.5156 207.4219 123.75 207.4219 Q118.2656 207.4219 107.2266 206.1562 Q96.1875 204.8906 90.7031 204.8906 Q88.3125 204.8906 78.2578 206.1562 Q68.2031 207.4219 66.7969 208.125 Q66.0938 208.9688 64.2656 210.375 Q63.1406 210.6562 61.3125 211.6406 Q53.8594 218.8125 53.8594 232.5938 Q53.8594 248.3438 77.2031 255.5156 Q81.2812 256.0781 89.1562 257.4844 Q100.8281 260.2969 97.875 260.2969 Q100.9688 260.2969 106.3125 258.75 Q112.5 256.9219 114.5391 256.6406 Q116.5781 256.3594 125.0156 256.3594 Q126.9844 253.8281 127.9688 253.8281 Q128.9531 253.8281 130.6406 254.5312 Q132.3281 255.2344 133.3125 255.2344 Q134.8594 255.2344 137.8828 254.9531 Q140.9062 254.6719 142.3125 254.6719 Q141.8906 253.125 141.8906 252 Q141.8906 249.1875 145.4062 249.1875 Q150.6094 249.1875 150.6094 252.8438 Q150.6094 253.4062 150.4688 253.8281 L152.1562 253.8281 Q154.6875 251.7188 157.5 251.7188 Q162.2812 251.7188 161.2969 255.9375 Q163.8281 257.3438 164.25 257.3438 Q164.9531 257.3438 166.3594 256.6406 Q167.7656 255.9375 168.3281 255.7969 Q168.4688 255.7969 172.5469 255.7969 Q173.9531 255.7969 175.3594 255.0938 Q176.7656 254.3906 176.9062 254.3906 Q177.75 254.3906 179.2969 255.0234 Q180.8438 255.6562 181.6875 255.6562 Q182.9531 255.6562 185.4141 253.2656 Q187.875 250.875 190.9688 250.875 Q191.5312 250.875 192.6562 251.0156 Q193.7812 251.1562 194.3438 251.1562 Q193.3594 249.4688 193.3594 248.0625 Q193.3594 246.2344 195.0469 245.3906 Q196.4531 245.25 199.2656 245.1094 Q200.25 242.7188 202.6406 237.9375 Q202.7812 237.6562 204.6094 236.8125 Q206.0156 236.1094 206.0156 234.2812 ZM235.125 277.5938 Q235.125 271.6875 225.9844 260.8594 Q225.2812 260.0156 216 253.4062 Q213.8906 257.3438 208.125 264.0938 Q196.875 272.3906 185.3438 272.3906 Q176.3438 272.3906 161.5781 268.0312 Q149.4844 264.5156 147.6562 264.6562 L107.7188 268.4531 Q106.875 268.5938 105.6094 268.5938 Q88.5938 268.5938 72.1406 264.5156 Q65.9531 262.9688 50.3438 248.7656 Q46.2656 248.9062 36.7031 256.2188 Q24.75 265.3594 22.0781 274.2188 Q20.6719 278.8594 20.6719 288.9844 Q20.6719 294.3281 23.625 302.9062 Q26.5781 311.4844 29.9531 315.7031 Q32.9062 319.5 38.6719 321.0469 Q43.7344 321.8906 48.7969 322.875 Q50.3438 323.5781 53.5781 324.7031 Q56.9531 325.2656 61.7344 325.2656 Q62.8594 325.2656 64.8984 325.0547 Q66.9375 324.8438 68.0625 324.8438 Q69.6094 324.8438 72 325.5469 Q74.9531 326.25 75.9375 326.3906 Q82.9688 327.375 88.5938 327.375 Q90.5625 327.375 103.6406 324.7031 Q105.75 320.9062 107.2969 320.9062 Q109.4062 320.9062 110.5312 321.6094 Q112.0781 322.875 112.6406 323.0156 Q113.4844 321.3281 115.4531 321.3281 Q116.2969 321.3281 117.8438 321.75 Q119.3906 322.1719 120.2344 322.1719 L124.3125 322.1719 Q124.1719 319.7812 128.3906 317.6719 Q132.0469 315.8438 134.8594 315.8438 Q138.9375 315.8438 138.9375 318.7969 L141.6094 318.7969 Q142.4531 318.7969 144.7734 316.8281 Q147.0938 314.8594 147.6562 314.8594 Q155.8125 314.8594 157.4297 318.7266 Q159.0469 322.5938 160.875 322.5938 Q161.8594 322.5938 162.9844 322.1719 Q162.8438 321.1875 162.8438 320.4844 Q162.8438 315.8438 165.5156 315.8438 Q165.5156 315.8438 169.5938 316.4062 Q170.1562 316.8281 170.8594 318.7969 L172.5469 318.7969 Q178.7344 318.7969 182.5312 315.7031 Q182.6719 314.5781 183.2344 312.6094 Q183.7969 311.4844 186.6797 308.8828 Q189.5625 306.2812 190.5469 306.2812 Q191.6719 306.2812 194.9062 306.8438 L196.875 307.9688 Q198.1406 305.4375 200.9531 305.4375 Q202.2188 305.4375 204.2578 302.625 Q206.2969 299.8125 208.6875 299.8125 Q215.1562 299.8125 215.0156 303.75 L217.125 303.1875 Q217.125 302.625 217.6875 298.4062 Q219.2344 297 221.625 296.2969 Q222.3281 290.3906 225.1406 290.3906 Q227.9531 290.3906 229.9219 291.6562 Q231.0469 288.2812 231.0469 288.1406 Q231.6094 287.2969 234.1406 286.0312 Q235.125 282.375 235.125 277.5938 Z" stroke="none" />
    </g>
  </g>
</svg>
